<?xml version="1.0" encoding="utf-8" standalone="no"?>
<!DOCTYPE svg PUBLIC "-//W3C//DTD SVG 1.1//EN"
  "http://www.w3.org/Graphics/SVG/1.1/DTD/svg11.dtd">
<!-- Created with matplotlib (https://matplotlib.org/) -->
<svg height="552.24pt" version="1.1" viewBox="0 0 1105.92 552.24" width="1105.92pt" xmlns="http://www.w3.org/2000/svg" xmlns:xlink="http://www.w3.org/1999/xlink">
 <defs>
  <style type="text/css">
*{stroke-linecap:butt;stroke-linejoin:round;}
  </style>
 </defs>
 <g id="figure_1">
  <g id="patch_1">
   <path d="M 0 552.24 
L 1105.92 552.24 
L 1105.92 0 
L 0 0 
z
" style="fill:#ffffff;"/>
  </g>
  <g id="axes_1">
   <g id="patch_2">
    <path d="M 138.24 491.4936 
L 995.328 491.4936 
L 995.328 66.2688 
L 138.24 66.2688 
z
" style="fill:#ffffff;"/>
   </g>
   <g id="matplotlib.axis_1">
    <g id="xtick_1">
     <g id="line2d_1">
      <defs>
       <path d="M 0 0 
L 0 3.5 
" id="mfead088040" style="stroke:#000000;stroke-width:0.8;"/>
      </defs>
      <g>
       <use style="stroke:#000000;stroke-width:0.8;" x="237.134769" xlink:href="#mfead088040" y="491.4936"/>
      </g>
     </g>
     <g id="text_1">
      <!-- 8 -->
      <defs>
       <path d="M 31.78125 34.625 
Q 24.75 34.625 20.71875 30.859375 
Q 16.703125 27.09375 16.703125 20.515625 
Q 16.703125 13.921875 20.71875 10.15625 
Q 24.75 6.390625 31.78125 6.390625 
Q 38.8125 6.390625 42.859375 10.171875 
Q 46.921875 13.96875 46.921875 20.515625 
Q 46.921875 27.09375 42.890625 30.859375 
Q 38.875 34.625 31.78125 34.625 
z
M 21.921875 38.8125 
Q 15.578125 40.375 12.03125 44.71875 
Q 8.5 49.078125 8.5 55.328125 
Q 8.5 64.0625 14.71875 69.140625 
Q 20.953125 74.21875 31.78125 74.21875 
Q 42.671875 74.21875 48.875 69.140625 
Q 55.078125 64.0625 55.078125 55.328125 
Q 55.078125 49.078125 51.53125 44.71875 
Q 48 40.375 41.703125 38.8125 
Q 48.828125 37.15625 52.796875 32.3125 
Q 56.78125 27.484375 56.78125 20.515625 
Q 56.78125 9.90625 50.3125 4.234375 
Q 43.84375 -1.421875 31.78125 -1.421875 
Q 19.734375 -1.421875 13.25 4.234375 
Q 6.78125 9.90625 6.78125 20.515625 
Q 6.78125 27.484375 10.78125 32.3125 
Q 14.796875 37.15625 21.921875 38.8125 
z
M 18.3125 54.390625 
Q 18.3125 48.734375 21.84375 45.5625 
Q 25.390625 42.390625 31.78125 42.390625 
Q 38.140625 42.390625 41.71875 45.5625 
Q 45.3125 48.734375 45.3125 54.390625 
Q 45.3125 60.0625 41.71875 63.234375 
Q 38.140625 66.40625 31.78125 66.40625 
Q 25.390625 66.40625 21.84375 63.234375 
Q 18.3125 60.0625 18.3125 54.390625 
z
" id="DejaVuSans-56"/>
      </defs>
      <g transform="translate(229.499769 516.72985)scale(0.24 -0.24)">
       <use xlink:href="#DejaVuSans-56"/>
      </g>
     </g>
    </g>
    <g id="xtick_2">
     <g id="line2d_2">
      <g>
       <use style="stroke:#000000;stroke-width:0.8;" x="357.007217" xlink:href="#mfead088040" y="491.4936"/>
      </g>
     </g>
     <g id="text_2">
      <!-- 10 -->
      <defs>
       <path d="M 12.40625 8.296875 
L 28.515625 8.296875 
L 28.515625 63.921875 
L 10.984375 60.40625 
L 10.984375 69.390625 
L 28.421875 72.90625 
L 38.28125 72.90625 
L 38.28125 8.296875 
L 54.390625 8.296875 
L 54.390625 0 
L 12.40625 0 
z
" id="DejaVuSans-49"/>
       <path d="M 31.78125 66.40625 
Q 24.171875 66.40625 20.328125 58.90625 
Q 16.5 51.421875 16.5 36.375 
Q 16.5 21.390625 20.328125 13.890625 
Q 24.171875 6.390625 31.78125 6.390625 
Q 39.453125 6.390625 43.28125 13.890625 
Q 47.125 21.390625 47.125 36.375 
Q 47.125 51.421875 43.28125 58.90625 
Q 39.453125 66.40625 31.78125 66.40625 
z
M 31.78125 74.21875 
Q 44.046875 74.21875 50.515625 64.515625 
Q 56.984375 54.828125 56.984375 36.375 
Q 56.984375 17.96875 50.515625 8.265625 
Q 44.046875 -1.421875 31.78125 -1.421875 
Q 19.53125 -1.421875 13.0625 8.265625 
Q 6.59375 17.96875 6.59375 36.375 
Q 6.59375 54.828125 13.0625 64.515625 
Q 19.53125 74.21875 31.78125 74.21875 
z
" id="DejaVuSans-48"/>
      </defs>
      <g transform="translate(341.737217 516.72985)scale(0.24 -0.24)">
       <use xlink:href="#DejaVuSans-49"/>
       <use x="63.623047" xlink:href="#DejaVuSans-48"/>
      </g>
     </g>
    </g>
    <g id="xtick_3">
     <g id="line2d_3">
      <g>
       <use style="stroke:#000000;stroke-width:0.8;" x="476.879664" xlink:href="#mfead088040" y="491.4936"/>
      </g>
     </g>
     <g id="text_3">
      <!-- 12 -->
      <defs>
       <path d="M 19.1875 8.296875 
L 53.609375 8.296875 
L 53.609375 0 
L 7.328125 0 
L 7.328125 8.296875 
Q 12.9375 14.109375 22.625 23.890625 
Q 32.328125 33.6875 34.8125 36.53125 
Q 39.546875 41.84375 41.421875 45.53125 
Q 43.3125 49.21875 43.3125 52.78125 
Q 43.3125 58.59375 39.234375 62.25 
Q 35.15625 65.921875 28.609375 65.921875 
Q 23.96875 65.921875 18.8125 64.3125 
Q 13.671875 62.703125 7.8125 59.421875 
L 7.8125 69.390625 
Q 13.765625 71.78125 18.9375 73 
Q 24.125 74.21875 28.421875 74.21875 
Q 39.75 74.21875 46.484375 68.546875 
Q 53.21875 62.890625 53.21875 53.421875 
Q 53.21875 48.921875 51.53125 44.890625 
Q 49.859375 40.875 45.40625 35.40625 
Q 44.1875 33.984375 37.640625 27.21875 
Q 31.109375 20.453125 19.1875 8.296875 
z
" id="DejaVuSans-50"/>
      </defs>
      <g transform="translate(461.609664 516.72985)scale(0.24 -0.24)">
       <use xlink:href="#DejaVuSans-49"/>
       <use x="63.623047" xlink:href="#DejaVuSans-50"/>
      </g>
     </g>
    </g>
    <g id="xtick_4">
     <g id="line2d_4">
      <g>
       <use style="stroke:#000000;stroke-width:0.8;" x="596.752112" xlink:href="#mfead088040" y="491.4936"/>
      </g>
     </g>
     <g id="text_4">
      <!-- 14 -->
      <defs>
       <path d="M 37.796875 64.3125 
L 12.890625 25.390625 
L 37.796875 25.390625 
z
M 35.203125 72.90625 
L 47.609375 72.90625 
L 47.609375 25.390625 
L 58.015625 25.390625 
L 58.015625 17.1875 
L 47.609375 17.1875 
L 47.609375 0 
L 37.796875 0 
L 37.796875 17.1875 
L 4.890625 17.1875 
L 4.890625 26.703125 
z
" id="DejaVuSans-52"/>
      </defs>
      <g transform="translate(581.482112 516.72985)scale(0.24 -0.24)">
       <use xlink:href="#DejaVuSans-49"/>
       <use x="63.623047" xlink:href="#DejaVuSans-52"/>
      </g>
     </g>
    </g>
    <g id="xtick_5">
     <g id="line2d_5">
      <g>
       <use style="stroke:#000000;stroke-width:0.8;" x="716.624559" xlink:href="#mfead088040" y="491.4936"/>
      </g>
     </g>
     <g id="text_5">
      <!-- 16 -->
      <defs>
       <path d="M 33.015625 40.375 
Q 26.375 40.375 22.484375 35.828125 
Q 18.609375 31.296875 18.609375 23.390625 
Q 18.609375 15.53125 22.484375 10.953125 
Q 26.375 6.390625 33.015625 6.390625 
Q 39.65625 6.390625 43.53125 10.953125 
Q 47.40625 15.53125 47.40625 23.390625 
Q 47.40625 31.296875 43.53125 35.828125 
Q 39.65625 40.375 33.015625 40.375 
z
M 52.59375 71.296875 
L 52.59375 62.3125 
Q 48.875 64.0625 45.09375 64.984375 
Q 41.3125 65.921875 37.59375 65.921875 
Q 27.828125 65.921875 22.671875 59.328125 
Q 17.53125 52.734375 16.796875 39.40625 
Q 19.671875 43.65625 24.015625 45.921875 
Q 28.375 48.1875 33.59375 48.1875 
Q 44.578125 48.1875 50.953125 41.515625 
Q 57.328125 34.859375 57.328125 23.390625 
Q 57.328125 12.15625 50.6875 5.359375 
Q 44.046875 -1.421875 33.015625 -1.421875 
Q 20.359375 -1.421875 13.671875 8.265625 
Q 6.984375 17.96875 6.984375 36.375 
Q 6.984375 53.65625 15.1875 63.9375 
Q 23.390625 74.21875 37.203125 74.21875 
Q 40.921875 74.21875 44.703125 73.484375 
Q 48.484375 72.75 52.59375 71.296875 
z
" id="DejaVuSans-54"/>
      </defs>
      <g transform="translate(701.354559 516.72985)scale(0.24 -0.24)">
       <use xlink:href="#DejaVuSans-49"/>
       <use x="63.623047" xlink:href="#DejaVuSans-54"/>
      </g>
     </g>
    </g>
    <g id="xtick_6">
     <g id="line2d_6">
      <g>
       <use style="stroke:#000000;stroke-width:0.8;" x="836.497007" xlink:href="#mfead088040" y="491.4936"/>
      </g>
     </g>
     <g id="text_6">
      <!-- 18 -->
      <g transform="translate(821.227007 516.72985)scale(0.24 -0.24)">
       <use xlink:href="#DejaVuSans-49"/>
       <use x="63.623047" xlink:href="#DejaVuSans-56"/>
      </g>
     </g>
    </g>
    <g id="xtick_7">
     <g id="line2d_7">
      <g>
       <use style="stroke:#000000;stroke-width:0.8;" x="956.369455" xlink:href="#mfead088040" y="491.4936"/>
      </g>
     </g>
     <g id="text_7">
      <!-- 20 -->
      <g transform="translate(941.099455 516.72985)scale(0.24 -0.24)">
       <use xlink:href="#DejaVuSans-50"/>
       <use x="63.623047" xlink:href="#DejaVuSans-48"/>
      </g>
     </g>
    </g>
    <g id="text_8">
     <!-- x -->
     <defs>
      <path d="M 54.890625 54.6875 
L 35.109375 28.078125 
L 55.90625 0 
L 45.3125 0 
L 29.390625 21.484375 
L 13.484375 0 
L 2.875 0 
L 24.125 28.609375 
L 4.6875 54.6875 
L 15.28125 54.6875 
L 29.78125 35.203125 
L 44.28125 54.6875 
z
" id="DejaVuSans-120"/>
     </defs>
     <g transform="translate(559.6815 543.95735)scale(0.24 -0.24)">
      <use xlink:href="#DejaVuSans-120"/>
     </g>
    </g>
   </g>
   <g id="matplotlib.axis_2">
    <g id="ytick_1">
     <g id="line2d_8">
      <defs>
       <path d="M 0 0 
L -3.5 0 
" id="m0344d64744" style="stroke:#000000;stroke-width:0.8;"/>
      </defs>
      <g>
       <use style="stroke:#000000;stroke-width:0.8;" x="138.24" xlink:href="#m0344d64744" y="472.1652"/>
      </g>
     </g>
     <g id="text_9">
      <!-- 0.00000 -->
      <defs>
       <path d="M 10.6875 12.40625 
L 21 12.40625 
L 21 0 
L 10.6875 0 
z
" id="DejaVuSans-46"/>
      </defs>
      <g transform="translate(31.9925 481.283325)scale(0.24 -0.24)">
       <use xlink:href="#DejaVuSans-48"/>
       <use x="63.623047" xlink:href="#DejaVuSans-46"/>
       <use x="95.410156" xlink:href="#DejaVuSans-48"/>
       <use x="159.033203" xlink:href="#DejaVuSans-48"/>
       <use x="222.65625" xlink:href="#DejaVuSans-48"/>
       <use x="286.279297" xlink:href="#DejaVuSans-48"/>
       <use x="349.902344" xlink:href="#DejaVuSans-48"/>
      </g>
     </g>
    </g>
    <g id="ytick_2">
     <g id="line2d_9">
      <g>
       <use style="stroke:#000000;stroke-width:0.8;" x="138.24" xlink:href="#m0344d64744" y="386.171756"/>
      </g>
     </g>
     <g id="text_10">
      <!-- 0.00001 -->
      <g transform="translate(31.9925 395.289881)scale(0.24 -0.24)">
       <use xlink:href="#DejaVuSans-48"/>
       <use x="63.623047" xlink:href="#DejaVuSans-46"/>
       <use x="95.410156" xlink:href="#DejaVuSans-48"/>
       <use x="159.033203" xlink:href="#DejaVuSans-48"/>
       <use x="222.65625" xlink:href="#DejaVuSans-48"/>
       <use x="286.279297" xlink:href="#DejaVuSans-48"/>
       <use x="349.902344" xlink:href="#DejaVuSans-49"/>
      </g>
     </g>
    </g>
    <g id="ytick_3">
     <g id="line2d_10">
      <g>
       <use style="stroke:#000000;stroke-width:0.8;" x="138.24" xlink:href="#m0344d64744" y="300.178312"/>
      </g>
     </g>
     <g id="text_11">
      <!-- 0.00002 -->
      <g transform="translate(31.9925 309.296437)scale(0.24 -0.24)">
       <use xlink:href="#DejaVuSans-48"/>
       <use x="63.623047" xlink:href="#DejaVuSans-46"/>
       <use x="95.410156" xlink:href="#DejaVuSans-48"/>
       <use x="159.033203" xlink:href="#DejaVuSans-48"/>
       <use x="222.65625" xlink:href="#DejaVuSans-48"/>
       <use x="286.279297" xlink:href="#DejaVuSans-48"/>
       <use x="349.902344" xlink:href="#DejaVuSans-50"/>
      </g>
     </g>
    </g>
    <g id="ytick_4">
     <g id="line2d_11">
      <g>
       <use style="stroke:#000000;stroke-width:0.8;" x="138.24" xlink:href="#m0344d64744" y="214.184869"/>
      </g>
     </g>
     <g id="text_12">
      <!-- 0.00003 -->
      <defs>
       <path d="M 40.578125 39.3125 
Q 47.65625 37.796875 51.625 33 
Q 55.609375 28.21875 55.609375 21.1875 
Q 55.609375 10.40625 48.1875 4.484375 
Q 40.765625 -1.421875 27.09375 -1.421875 
Q 22.515625 -1.421875 17.65625 -0.515625 
Q 12.796875 0.390625 7.625 2.203125 
L 7.625 11.71875 
Q 11.71875 9.328125 16.59375 8.109375 
Q 21.484375 6.890625 26.8125 6.890625 
Q 36.078125 6.890625 40.9375 10.546875 
Q 45.796875 14.203125 45.796875 21.1875 
Q 45.796875 27.640625 41.28125 31.265625 
Q 36.765625 34.90625 28.71875 34.90625 
L 20.21875 34.90625 
L 20.21875 43.015625 
L 29.109375 43.015625 
Q 36.375 43.015625 40.234375 45.921875 
Q 44.09375 48.828125 44.09375 54.296875 
Q 44.09375 59.90625 40.109375 62.90625 
Q 36.140625 65.921875 28.71875 65.921875 
Q 24.65625 65.921875 20.015625 65.03125 
Q 15.375 64.15625 9.8125 62.3125 
L 9.8125 71.09375 
Q 15.4375 72.65625 20.34375 73.4375 
Q 25.25 74.21875 29.59375 74.21875 
Q 40.828125 74.21875 47.359375 69.109375 
Q 53.90625 64.015625 53.90625 55.328125 
Q 53.90625 49.265625 50.4375 45.09375 
Q 46.96875 40.921875 40.578125 39.3125 
z
" id="DejaVuSans-51"/>
      </defs>
      <g transform="translate(31.9925 223.302994)scale(0.24 -0.24)">
       <use xlink:href="#DejaVuSans-48"/>
       <use x="63.623047" xlink:href="#DejaVuSans-46"/>
       <use x="95.410156" xlink:href="#DejaVuSans-48"/>
       <use x="159.033203" xlink:href="#DejaVuSans-48"/>
       <use x="222.65625" xlink:href="#DejaVuSans-48"/>
       <use x="286.279297" xlink:href="#DejaVuSans-48"/>
       <use x="349.902344" xlink:href="#DejaVuSans-51"/>
      </g>
     </g>
    </g>
    <g id="ytick_5">
     <g id="line2d_12">
      <g>
       <use style="stroke:#000000;stroke-width:0.8;" x="138.24" xlink:href="#m0344d64744" y="128.191425"/>
      </g>
     </g>
     <g id="text_13">
      <!-- 0.00004 -->
      <g transform="translate(31.9925 137.30955)scale(0.24 -0.24)">
       <use xlink:href="#DejaVuSans-48"/>
       <use x="63.623047" xlink:href="#DejaVuSans-46"/>
       <use x="95.410156" xlink:href="#DejaVuSans-48"/>
       <use x="159.033203" xlink:href="#DejaVuSans-48"/>
       <use x="222.65625" xlink:href="#DejaVuSans-48"/>
       <use x="286.279297" xlink:href="#DejaVuSans-48"/>
       <use x="349.902344" xlink:href="#DejaVuSans-52"/>
      </g>
     </g>
    </g>
    <g id="text_14">
     <!-- y''' -->
     <defs>
      <path d="M 32.171875 -5.078125 
Q 28.375 -14.84375 24.75 -17.8125 
Q 21.140625 -20.796875 15.09375 -20.796875 
L 7.90625 -20.796875 
L 7.90625 -13.28125 
L 13.1875 -13.28125 
Q 16.890625 -13.28125 18.9375 -11.515625 
Q 21 -9.765625 23.484375 -3.21875 
L 25.09375 0.875 
L 2.984375 54.6875 
L 12.5 54.6875 
L 29.59375 11.921875 
L 46.6875 54.6875 
L 56.203125 54.6875 
z
" id="DejaVuSans-121"/>
      <path d="M 17.921875 72.90625 
L 17.921875 45.796875 
L 9.625 45.796875 
L 9.625 72.90625 
z
" id="DejaVuSans-39"/>
     </defs>
     <g transform="translate(23.00125 295.878075)rotate(-90)scale(0.24 -0.24)">
      <use xlink:href="#DejaVuSans-121"/>
      <use x="59.179688" xlink:href="#DejaVuSans-39"/>
      <use x="86.669922" xlink:href="#DejaVuSans-39"/>
      <use x="114.160156" xlink:href="#DejaVuSans-39"/>
     </g>
    </g>
   </g>
   <g id="line2d_13">
    <path clip-path="url(#p8c1a3fa5b3)" d="M 177.198545 149.218818 
L 177.977716 148.642187 
L 178.756887 148.578117 
L 179.536058 148.193696 
L 180.315229 148.257766 
L 181.0944 147.809275 
L 181.873571 147.552995 
L 184.211084 146.399733 
L 184.990255 146.335663 
L 185.769425 146.143452 
L 186.548596 145.759032 
L 187.327767 145.246471 
L 188.106938 145.054261 
L 188.886109 144.99019 
L 189.66528 144.5417 
L 191.223622 144.093209 
L 192.002793 143.772858 
L 192.781964 143.580648 
L 194.340305 142.811807 
L 195.119476 142.555526 
L 195.898647 142.555526 
L 196.677818 142.299246 
L 197.456989 141.594475 
L 198.23616 141.402264 
L 199.015331 141.017844 
L 199.794502 141.274124 
L 200.573673 140.505283 
L 201.352844 140.377143 
L 202.132015 140.633423 
L 202.911185 139.672371 
L 203.690356 139.800512 
L 204.469527 139.287951 
L 206.80704 138.51911 
L 207.586211 137.878408 
L 208.365382 137.493988 
L 209.144553 136.853287 
L 209.923724 136.725146 
L 210.702895 135.828165 
L 211.482065 135.700025 
L 212.261236 135.187464 
L 213.040407 135.059324 
L 213.819578 134.418623 
L 214.598749 133.521641 
L 215.37792 133.649781 
L 216.157091 132.7528 
L 216.936262 132.496519 
L 218.494604 131.727678 
L 219.273775 131.599538 
L 220.052945 130.574416 
L 220.832116 130.446276 
L 221.611287 129.805575 
L 223.169629 129.036733 
L 223.9488 128.267892 
L 224.727971 128.267892 
L 225.507142 128.011612 
L 226.286313 127.11463 
L 227.065484 126.73021 
L 227.844655 126.089508 
L 228.623825 125.961368 
L 229.402996 125.320667 
L 230.182167 125.064387 
L 231.740509 124.039265 
L 232.51968 123.270424 
L 233.298851 123.142284 
L 234.857193 122.245302 
L 235.636364 121.860881 
L 236.415535 120.9639 
L 237.194705 120.579479 
L 237.973876 120.323199 
L 238.753047 120.195059 
L 239.532218 119.682498 
L 240.311389 118.913656 
L 241.09056 118.913656 
L 242.648902 117.504114 
L 243.428073 116.991553 
L 244.207244 116.735273 
L 244.986415 116.094572 
L 245.765585 115.710151 
L 246.544756 115.453871 
L 247.323927 114.94131 
L 248.103098 115.06945 
L 248.882269 113.788048 
L 249.66144 113.659907 
L 250.440611 112.634786 
L 251.998953 112.378505 
L 252.778124 111.609664 
L 253.557295 111.609664 
L 254.336465 110.712682 
L 255.115636 110.840823 
L 255.894807 109.815701 
L 256.673978 109.687561 
L 257.453149 108.918719 
L 259.790662 107.765457 
L 260.569833 107.124756 
L 261.349004 106.996616 
L 262.128175 105.971494 
L 262.907345 106.355915 
L 263.686516 105.202653 
L 264.465687 105.074513 
L 265.244858 104.433812 
L 266.024029 104.305672 
L 266.8032 103.40869 
L 267.582371 103.15241 
L 268.361542 102.767989 
L 269.140713 102.127288 
L 269.919884 102.127288 
L 270.699055 101.742867 
L 272.257396 100.333325 
L 273.036567 99.692624 
L 273.815738 99.564484 
L 274.594909 98.923783 
L 275.37408 98.795642 
L 276.153251 98.154941 
L 276.932422 98.026801 
L 277.711593 97.12982 
L 278.490764 96.873539 
L 279.269935 96.104698 
L 280.049105 95.976558 
L 280.828276 95.720277 
L 281.607447 95.207716 
L 282.386618 95.079576 
L 283.165789 93.926314 
L 283.94496 93.798174 
L 284.724131 93.029333 
L 285.503302 92.644912 
L 286.282473 92.901192 
L 287.061644 92.004211 
L 287.840815 91.74793 
L 288.619985 90.850949 
L 289.399156 90.722809 
L 290.178327 90.338388 
L 290.957498 89.313266 
L 291.736669 89.697687 
L 292.51584 89.056986 
L 293.295011 88.800705 
L 294.074182 88.672565 
L 294.853353 88.416285 
L 295.632524 88.416285 
L 296.411695 88.288145 
L 297.190865 88.544425 
L 297.970036 88.672565 
L 298.749207 88.416285 
L 299.528378 88.544425 
L 300.307549 88.416285 
L 301.08672 88.416285 
L 301.865891 88.544425 
L 302.645062 88.416285 
L 303.424233 88.672565 
L 304.203404 88.288145 
L 304.982575 88.672565 
L 305.761745 88.288145 
L 306.540916 88.800705 
L 308.099258 88.544425 
L 308.878429 88.160004 
L 309.6576 88.800705 
L 310.436771 88.416285 
L 311.215942 88.160004 
L 311.995113 88.288145 
L 312.774284 88.544425 
L 313.553455 88.288145 
L 314.332625 88.160004 
L 315.111796 88.800705 
L 315.890967 88.672565 
L 316.670138 88.672565 
L 317.449309 88.031864 
L 318.22848 88.800705 
L 319.007651 88.160004 
L 319.786822 88.416285 
L 320.565993 88.031864 
L 321.345164 88.672565 
L 322.124335 88.160004 
L 322.903505 88.928846 
L 323.682676 88.288145 
L 324.461847 88.031864 
L 325.241018 88.031864 
L 326.020189 88.544425 
L 326.79936 88.160004 
L 327.578531 88.031864 
L 328.357702 88.160004 
L 329.136873 88.416285 
L 329.916044 88.544425 
L 330.695215 88.031864 
L 331.474385 88.160004 
L 332.253556 88.160004 
L 333.032727 88.031864 
L 333.811898 88.031864 
L 334.591069 88.288145 
L 335.37024 87.647443 
L 336.149411 88.031864 
L 336.928582 87.903724 
L 337.707753 88.160004 
L 338.486924 87.775584 
L 339.266095 88.544425 
L 340.045265 88.288145 
L 340.824436 88.160004 
L 341.603607 88.288145 
L 342.382778 87.775584 
L 343.161949 88.031864 
L 343.94112 87.775584 
L 344.720291 88.416285 
L 345.499462 88.672565 
L 346.278633 88.031864 
L 347.057804 88.031864 
L 347.836975 87.903724 
L 348.616145 88.288145 
L 350.174487 88.031864 
L 350.953658 88.416285 
L 351.732829 88.031864 
L 352.512 87.903724 
L 354.070342 87.903724 
L 354.849513 88.288145 
L 355.628684 88.031864 
L 356.407855 88.160004 
L 357.187025 87.775584 
L 357.966196 88.160004 
L 358.745367 87.391163 
L 359.524538 87.903724 
L 360.303709 87.775584 
L 361.08288 87.903724 
L 361.862051 87.903724 
L 362.641222 88.160004 
L 363.420393 87.903724 
L 364.199564 87.519303 
L 364.978735 88.160004 
L 365.757905 87.775584 
L 367.316247 88.031864 
L 368.095418 87.903724 
L 368.874589 88.031864 
L 369.65376 88.416285 
L 370.432931 87.903724 
L 371.212102 87.903724 
L 371.991273 88.031864 
L 372.770444 88.031864 
L 373.549615 87.775584 
L 374.328785 87.775584 
L 375.107956 87.647443 
L 375.887127 87.775584 
L 376.666298 87.391163 
L 377.445469 88.031864 
L 378.22464 87.263023 
L 379.003811 87.775584 
L 379.782982 87.519303 
L 380.562153 87.775584 
L 381.341324 88.160004 
L 382.120495 87.903724 
L 382.899665 87.391163 
L 383.678836 88.031864 
L 384.458007 88.160004 
L 385.237178 88.031864 
L 386.016349 87.647443 
L 386.79552 87.775584 
L 388.353862 87.775584 
L 389.133033 87.647443 
L 389.912204 87.647443 
L 390.691375 87.519303 
L 391.470545 88.031864 
L 392.249716 87.391163 
L 393.028887 87.134883 
L 393.808058 87.391163 
L 394.587229 87.134883 
L 395.3664 87.775584 
L 396.145571 87.647443 
L 396.924742 87.647443 
L 397.703913 87.519303 
L 398.483084 87.903724 
L 399.262255 87.647443 
L 400.041425 87.903724 
L 400.820596 87.647443 
L 401.599767 87.647443 
L 402.378938 87.775584 
L 403.158109 87.391163 
L 403.93728 87.647443 
L 404.716451 87.006742 
L 405.495622 87.647443 
L 406.274793 87.006742 
L 407.053964 87.391163 
L 407.833135 87.647443 
L 408.612305 87.647443 
L 409.391476 87.263023 
L 410.170647 87.519303 
L 410.949818 87.134883 
L 411.728989 87.519303 
L 412.50816 87.647443 
L 413.287331 87.647443 
L 414.845673 87.391163 
L 415.624844 87.647443 
L 416.404015 87.391163 
L 417.183185 87.391163 
L 417.962356 87.006742 
L 418.741527 87.134883 
L 419.520698 87.519303 
L 420.299869 87.647443 
L 421.07904 87.134883 
L 423.416553 87.134883 
L 424.974895 87.391163 
L 425.754065 87.134883 
L 426.533236 87.775584 
L 427.312407 86.750462 
L 428.091578 87.134883 
L 428.870749 87.006742 
L 429.64992 87.134883 
L 430.429091 86.750462 
L 431.208262 87.391163 
L 432.766604 86.494182 
L 433.545775 87.391163 
L 434.324945 87.263023 
L 435.104116 87.006742 
L 435.883287 87.134883 
L 436.662458 87.519303 
L 437.441629 87.134883 
L 438.2208 86.622322 
L 438.999971 86.878602 
L 440.558313 86.878602 
L 441.337484 87.263023 
L 442.116655 87.263023 
L 442.895825 87.006742 
L 443.674996 87.006742 
L 444.454167 86.878602 
L 445.233338 87.006742 
L 446.012509 86.878602 
L 447.570851 87.134883 
L 448.350022 87.006742 
L 449.129193 87.006742 
L 449.908364 86.750462 
L 450.687535 86.366041 
L 451.466705 87.263023 
L 452.245876 87.134883 
L 453.025047 86.878602 
L 453.804218 86.878602 
L 454.583389 87.006742 
L 456.141731 87.006742 
L 456.920902 86.494182 
L 457.700073 86.622322 
L 458.479244 87.006742 
L 459.258415 86.878602 
L 460.037585 86.878602 
L 460.816756 86.750462 
L 461.595927 87.263023 
L 462.375098 87.391163 
L 463.154269 87.134883 
L 463.93344 86.366041 
L 464.712611 87.006742 
L 465.491782 86.750462 
L 466.270953 86.878602 
L 467.050124 86.494182 
L 467.829295 86.878602 
L 468.608465 87.391163 
L 469.387636 86.622322 
L 470.166807 86.622322 
L 470.945978 86.494182 
L 471.725149 87.134883 
L 472.50432 86.622322 
L 473.283491 86.622322 
L 474.062662 86.878602 
L 474.841833 86.878602 
L 475.621004 87.134883 
L 476.400175 87.006742 
L 477.179345 86.622322 
L 477.958516 86.878602 
L 478.737687 86.366041 
L 479.516858 86.622322 
L 480.296029 87.134883 
L 481.0752 86.494182 
L 481.854371 86.878602 
L 482.633542 86.878602 
L 483.412713 86.750462 
L 484.191884 86.109761 
L 484.971055 86.366041 
L 485.750225 86.750462 
L 486.529396 86.750462 
L 487.308567 87.134883 
L 488.087738 86.878602 
L 488.866909 87.006742 
L 489.64608 86.494182 
L 490.425251 86.622322 
L 491.204422 87.134883 
L 491.983593 86.878602 
L 492.762764 86.494182 
L 493.541935 86.494182 
L 494.321105 86.366041 
L 495.100276 86.750462 
L 495.879447 86.494182 
L 496.658618 86.366041 
L 497.437789 86.494182 
L 498.21696 86.750462 
L 498.996131 85.85348 
L 499.775302 87.263023 
L 500.554473 86.494182 
L 501.333644 86.494182 
L 502.112815 86.366041 
L 502.891985 86.750462 
L 503.671156 86.366041 
L 504.450327 86.622322 
L 505.229498 86.750462 
L 506.008669 86.622322 
L 506.78784 86.366041 
L 507.567011 86.750462 
L 508.346182 86.494182 
L 509.125353 87.006742 
L 509.904524 86.622322 
L 510.683695 86.878602 
L 512.242036 86.366041 
L 513.021207 86.366041 
L 513.800378 87.006742 
L 514.579549 85.981621 
L 515.35872 86.750462 
L 516.137891 85.981621 
L 516.917062 85.981621 
L 517.696233 86.366041 
L 518.475404 86.622322 
L 519.254575 86.237901 
L 520.033745 86.494182 
L 520.812916 86.494182 
L 521.592087 85.85348 
L 522.371258 85.981621 
L 523.150429 86.237901 
L 523.9296 86.109761 
L 524.708771 86.109761 
L 525.487942 85.5972 
L 526.267113 85.981621 
L 527.046284 86.237901 
L 527.825455 85.981621 
L 528.604625 86.237901 
L 529.383796 85.981621 
L 530.162967 86.109761 
L 530.942138 86.622322 
L 531.721309 86.109761 
L 532.50048 85.981621 
L 533.279651 86.494182 
L 534.058822 86.109761 
L 534.837993 85.981621 
L 535.617164 85.72534 
L 536.396335 86.109761 
L 538.733847 86.109761 
L 539.513018 85.85348 
L 540.292189 85.85348 
L 541.07136 86.109761 
L 541.850531 85.981621 
L 542.629702 86.494182 
L 543.408873 85.85348 
L 544.188044 86.237901 
L 546.525556 86.237901 
L 547.304727 86.494182 
L 548.083898 86.622322 
L 548.863069 86.622322 
L 549.64224 86.878602 
L 550.421411 86.750462 
L 551.200582 86.750462 
L 551.979753 86.622322 
L 552.758924 87.263023 
L 553.538095 87.391163 
L 554.317265 86.878602 
L 555.096436 87.647443 
L 555.875607 87.391163 
L 556.654778 88.160004 
L 557.433949 87.903724 
L 558.21312 87.775584 
L 558.992291 87.391163 
L 559.771462 88.160004 
L 560.550633 88.288145 
L 561.329804 88.800705 
L 562.108975 87.903724 
L 562.888145 88.031864 
L 563.667316 88.544425 
L 564.446487 88.672565 
L 565.225658 88.160004 
L 566.004829 88.160004 
L 566.784 88.800705 
L 567.563171 88.928846 
L 568.342342 88.928846 
L 569.121513 89.056986 
L 569.900684 89.441407 
L 570.679855 89.569547 
L 571.459025 89.056986 
L 572.238196 89.056986 
L 573.017367 89.697687 
L 573.796538 89.569547 
L 575.35488 90.466528 
L 576.134051 89.697687 
L 576.913222 89.953967 
L 577.692393 90.466528 
L 578.471564 90.082108 
L 579.250735 91.107229 
L 580.029905 90.850949 
L 580.809076 90.210248 
L 581.588247 90.722809 
L 582.367418 90.850949 
L 583.146589 90.722809 
L 583.92576 91.107229 
L 584.704931 91.107229 
L 585.484102 90.850949 
L 586.263273 91.23537 
L 587.042444 92.516772 
L 587.821615 91.36351 
L 588.600785 91.876071 
L 589.379956 91.61979 
L 590.159127 91.61979 
L 590.938298 91.876071 
L 591.717469 91.876071 
L 592.49664 92.132351 
L 594.054982 91.876071 
L 594.834153 92.644912 
L 595.613324 92.260491 
L 596.392495 92.516772 
L 597.171665 93.029333 
L 597.950836 92.644912 
L 599.509178 93.157473 
L 600.288349 93.285613 
L 601.06752 93.157473 
L 601.846691 93.413753 
L 602.625862 93.285613 
L 603.405033 93.413753 
L 604.184204 93.670034 
L 604.963375 92.773052 
L 605.742545 93.157473 
L 606.521716 94.182595 
L 608.080058 94.182595 
L 608.859229 94.054454 
L 609.6384 93.541893 
L 610.417571 94.567015 
L 611.196742 93.926314 
L 611.975913 94.567015 
L 612.755084 94.695155 
L 613.534255 94.310735 
L 614.313425 94.438875 
L 615.092596 95.079576 
L 615.871767 94.438875 
L 616.650938 95.079576 
L 617.430109 94.823296 
L 618.20928 95.207716 
L 618.988451 95.335856 
L 619.767622 95.079576 
L 620.546793 95.848417 
L 621.325964 95.463997 
L 622.105135 95.720277 
L 622.884305 95.335856 
L 623.663476 95.463997 
L 624.442647 96.232838 
L 625.221818 96.104698 
L 626.000989 96.232838 
L 626.78016 96.617259 
L 627.559331 96.617259 
L 628.338502 97.001679 
L 629.896844 95.976558 
L 630.676015 96.617259 
L 631.455185 96.873539 
L 632.234356 96.489118 
L 633.013527 97.770521 
L 633.792698 96.745399 
L 634.571869 97.001679 
L 635.35104 97.3861 
L 636.130211 97.51424 
L 636.909382 97.898661 
L 638.467724 98.411222 
L 639.246895 98.154941 
L 640.026065 98.539362 
L 640.805236 97.898661 
L 641.584407 98.026801 
L 642.363578 98.795642 
L 643.142749 98.411222 
L 643.92192 99.308203 
L 644.701091 98.411222 
L 645.480262 98.026801 
L 646.259433 98.154941 
L 647.038604 98.411222 
L 647.817775 99.436343 
L 648.596945 99.692624 
L 649.376116 99.180063 
L 650.155287 98.923783 
L 650.934458 99.948904 
L 651.713629 98.411222 
L 652.4928 98.667502 
L 653.271971 99.692624 
L 654.830313 100.205185 
L 655.609484 99.436343 
L 656.388655 99.692624 
L 657.167825 100.205185 
L 657.946996 99.692624 
L 658.726167 100.205185 
L 659.505338 100.974026 
L 660.284509 100.461465 
L 661.06368 100.205185 
L 661.842851 100.974026 
L 662.622022 100.974026 
L 663.401193 101.230306 
L 664.180364 100.974026 
L 664.959535 101.486587 
L 665.738705 101.486587 
L 666.517876 101.230306 
L 667.297047 101.230306 
L 668.076218 101.999148 
L 668.855389 101.486587 
L 669.63456 101.999148 
L 670.413731 101.742867 
L 671.192902 101.230306 
L 671.972073 101.230306 
L 672.751244 101.999148 
L 673.530415 102.255428 
L 674.309585 102.767989 
L 675.088756 102.255428 
L 675.867927 101.999148 
L 676.647098 102.767989 
L 677.426269 102.511709 
L 678.20544 103.28055 
L 678.984611 103.024269 
L 679.763782 103.53683 
L 680.542953 102.767989 
L 681.322124 103.793111 
L 682.101295 103.53683 
L 682.880465 103.793111 
L 683.659636 103.28055 
L 684.438807 103.28055 
L 685.217978 103.024269 
L 685.997149 104.305672 
L 686.77632 103.28055 
L 687.555491 103.28055 
L 688.334662 104.305672 
L 689.113833 103.793111 
L 689.893004 104.049391 
L 690.672175 104.049391 
L 691.451345 104.818233 
L 692.230516 104.561952 
L 693.788858 104.561952 
L 694.568029 104.818233 
L 696.126371 104.818233 
L 696.905542 105.843354 
L 697.684713 104.561952 
L 698.463884 104.818233 
L 699.243055 105.587074 
L 700.801396 105.074513 
L 701.580567 105.330793 
L 702.359738 105.074513 
L 703.138909 105.330793 
L 703.91808 105.843354 
L 704.697251 105.843354 
L 705.476422 106.355915 
L 706.255593 106.355915 
L 707.034764 106.099635 
L 708.593105 106.099635 
L 710.151447 106.612196 
L 710.930618 106.612196 
L 711.709789 107.124756 
L 712.48896 106.868476 
L 714.047302 106.868476 
L 714.826473 108.149878 
L 715.605644 107.637317 
L 716.384815 106.868476 
L 717.163985 107.124756 
L 717.943156 107.637317 
L 718.722327 107.124756 
L 719.501498 107.893598 
L 720.280669 107.381037 
L 721.05984 108.406159 
L 721.839011 107.637317 
L 722.618182 108.149878 
L 723.397353 108.918719 
L 724.176524 107.637317 
L 724.955695 109.43128 
L 725.734865 108.149878 
L 726.514036 109.175 
L 727.293207 108.662439 
L 728.072378 108.662439 
L 728.851549 108.918719 
L 729.63072 108.406159 
L 730.409891 108.662439 
L 731.189062 109.43128 
L 731.968233 109.43128 
L 732.747404 109.687561 
L 733.526575 109.175 
L 734.305745 109.43128 
L 735.084916 110.968963 
L 735.864087 109.175 
L 736.643258 109.43128 
L 737.422429 110.200122 
L 738.2016 109.943841 
L 738.980771 110.456402 
L 739.759942 110.456402 
L 740.539113 110.200122 
L 741.318284 111.481524 
L 742.097455 109.943841 
L 742.876625 111.225243 
L 743.655796 110.712682 
L 744.434967 110.712682 
L 745.214138 112.250365 
L 745.993309 111.481524 
L 746.77248 111.994085 
L 747.551651 111.225243 
L 748.330822 110.968963 
L 749.109993 111.481524 
L 749.889164 111.225243 
L 750.668335 111.737804 
L 751.447505 111.737804 
L 752.226676 111.994085 
L 753.005847 111.481524 
L 753.785018 112.506646 
L 754.564189 112.762926 
L 756.122531 112.250365 
L 756.901702 113.275487 
L 757.680873 112.506646 
L 758.460044 112.506646 
L 759.239215 112.762926 
L 760.018385 112.506646 
L 760.797556 113.019206 
L 761.576727 112.762926 
L 762.355898 113.019206 
L 763.135069 112.506646 
L 764.693411 113.019206 
L 765.472582 114.044328 
L 766.251753 113.531767 
L 767.030924 114.044328 
L 767.810095 114.044328 
L 768.589265 113.788048 
L 769.368436 113.788048 
L 770.147607 113.275487 
L 770.926778 113.788048 
L 771.705949 114.044328 
L 772.48512 114.044328 
L 773.264291 114.300609 
L 774.043462 114.300609 
L 774.822633 113.788048 
L 775.601804 114.813169 
L 776.380975 115.06945 
L 777.939316 115.06945 
L 778.718487 114.556889 
L 779.497658 114.300609 
L 780.276829 115.32573 
L 781.835171 115.838291 
L 782.614342 115.582011 
L 783.393513 116.607132 
L 784.172684 116.094572 
L 784.951855 115.06945 
L 785.731025 116.094572 
L 786.510196 116.094572 
L 787.289367 116.607132 
L 788.068538 115.582011 
L 788.847709 116.607132 
L 789.62688 117.375974 
L 790.406051 116.607132 
L 791.185222 116.607132 
L 791.964393 117.375974 
L 793.522735 116.863413 
L 794.301905 117.119693 
L 795.081076 116.607132 
L 795.860247 117.119693 
L 796.639418 117.375974 
L 797.418589 117.888535 
L 798.19776 117.888535 
L 798.976931 118.657376 
L 799.756102 118.144815 
L 800.535273 118.144815 
L 801.314444 117.375974 
L 802.872785 118.401095 
L 805.210298 117.632254 
L 805.989469 119.169937 
L 806.76864 117.888535 
L 807.547811 118.401095 
L 809.106153 118.401095 
L 811.443665 119.169937 
L 812.222836 118.657376 
L 813.002007 119.682498 
L 813.781178 119.682498 
L 814.560349 120.451339 
L 815.33952 119.682498 
L 816.118691 120.451339 
L 816.897862 119.682498 
L 817.677033 120.195059 
L 818.456204 120.451339 
L 819.235375 120.9639 
L 820.014545 119.938778 
L 820.793716 120.707619 
L 821.572887 120.707619 
L 822.352058 121.22018 
L 823.131229 119.682498 
L 823.9104 121.22018 
L 824.689571 120.707619 
L 825.468742 120.451339 
L 826.247913 121.476461 
L 827.027084 120.707619 
L 827.806255 121.989022 
L 828.585425 121.476461 
L 830.143767 121.476461 
L 830.922938 120.9639 
L 831.702109 120.9639 
L 832.48128 122.245302 
L 833.260451 121.22018 
L 834.039622 121.989022 
L 834.818793 121.732741 
L 835.597964 122.501582 
L 837.156305 121.989022 
L 837.935476 121.989022 
L 838.714647 122.757863 
L 839.493818 122.501582 
L 840.272989 122.757863 
L 841.05216 123.526704 
L 841.831331 123.014143 
L 842.610502 122.245302 
L 843.389673 123.526704 
L 844.168844 123.782985 
L 845.727185 122.757863 
L 846.506356 123.270424 
L 847.285527 123.526704 
L 848.064698 123.270424 
L 848.843869 124.295545 
L 849.62304 124.295545 
L 850.402211 123.782985 
L 851.181382 124.295545 
L 851.960553 123.782985 
L 852.739724 124.808106 
L 854.298065 124.295545 
L 855.077236 124.295545 
L 855.856407 124.808106 
L 856.635578 125.064387 
L 857.414749 124.295545 
L 858.19392 125.064387 
L 858.973091 124.808106 
L 859.752262 126.089508 
L 860.531433 125.064387 
L 862.089775 124.551826 
L 862.868945 124.808106 
L 863.648116 125.833228 
L 864.427287 125.576948 
L 865.206458 125.833228 
L 865.985629 125.576948 
L 866.7648 126.089508 
L 867.543971 126.089508 
L 868.323142 126.85835 
L 869.102313 126.345789 
L 869.881484 126.602069 
L 870.660655 126.089508 
L 871.439825 127.11463 
L 872.218996 126.345789 
L 872.998167 126.602069 
L 873.777338 127.883472 
L 874.556509 127.11463 
L 875.33568 127.370911 
L 876.894022 127.370911 
L 877.673193 127.627191 
L 878.452364 127.370911 
L 879.231535 127.627191 
L 880.010705 128.652313 
L 880.789876 127.370911 
L 881.569047 127.883472 
L 882.348218 128.139752 
L 883.127389 128.652313 
L 883.90656 127.883472 
L 884.685731 128.396032 
L 885.464902 128.139752 
L 886.244073 128.396032 
L 887.023244 129.164874 
L 887.802415 129.421154 
L 888.581585 128.652313 
L 891.698269 128.652313 
L 892.47744 129.421154 
L 893.256611 128.396032 
L 894.035782 129.933715 
L 894.814953 129.677435 
L 895.594124 129.677435 
L 896.373295 129.933715 
L 897.931636 129.421154 
L 898.710807 128.908593 
L 899.489978 128.908593 
L 900.269149 129.933715 
L 901.04832 129.677435 
L 901.827491 129.164874 
L 902.606662 129.421154 
L 903.385833 127.883472 
L 904.165004 127.883472 
L 904.944175 128.139752 
L 905.723345 126.602069 
L 906.502516 126.602069 
L 907.281687 125.320667 
L 908.060858 124.551826 
L 908.840029 124.808106 
L 909.6192 123.014143 
L 910.398371 124.039265 
L 911.177542 122.501582 
L 911.956713 122.245302 
L 912.735884 120.451339 
L 913.515055 120.9639 
L 914.294225 120.195059 
L 915.073396 119.682498 
L 915.852567 119.938778 
L 916.631738 118.401095 
L 917.410909 118.401095 
L 918.19008 117.375974 
L 918.969251 116.863413 
L 919.748422 116.607132 
L 920.527593 115.838291 
L 921.306764 114.556889 
L 922.085935 115.32573 
L 922.865105 114.044328 
L 923.644276 113.788048 
L 924.423447 113.019206 
L 925.202618 113.275487 
L 925.981789 111.737804 
L 926.76096 111.737804 
L 927.540131 110.968963 
L 928.319302 109.943841 
L 929.098473 110.712682 
L 929.877644 109.687561 
L 930.656815 108.406159 
L 931.435985 108.918719 
L 932.215156 107.124756 
L 932.994327 107.637317 
L 933.773498 106.099635 
L 934.552669 105.587074 
L 935.33184 105.330793 
L 936.111011 104.818233 
L 936.890182 104.818233 
L 937.669353 104.305672 
L 938.448524 103.024269 
L 939.227695 102.511709 
L 940.006865 102.511709 
L 940.786036 101.999148 
L 941.565207 100.461465 
L 942.344378 100.205185 
L 943.123549 99.692624 
L 943.90272 98.923783 
L 945.461062 97.898661 
L 946.240233 98.154941 
L 947.019404 96.617259 
L 947.798575 96.104698 
L 948.577745 95.335856 
L 949.356916 96.617259 
L 950.136087 94.310735 
L 950.915258 94.310735 
L 951.694429 93.798174 
L 952.4736 93.541893 
L 953.252771 91.23537 
L 954.031942 91.49165 
L 956.369455 90.722809 
L 956.369455 90.722809 
" style="fill:none;stroke:#1f77b4;stroke-linecap:square;stroke-width:1.5;"/>
   </g>
   <g id="line2d_14">
    <path clip-path="url(#p8c1a3fa5b3)" d="M 177.198545 472.1652 
L 956.369455 472.1652 
L 956.369455 472.1652 
" style="fill:none;stroke:#ff7f0e;stroke-linecap:square;stroke-width:1.5;"/>
   </g>
   <g id="patch_3">
    <path d="M 138.24 491.4936 
L 138.24 66.2688 
" style="fill:none;stroke:#000000;stroke-linecap:square;stroke-linejoin:miter;stroke-width:0.8;"/>
   </g>
   <g id="patch_4">
    <path d="M 995.328 491.4936 
L 995.328 66.2688 
" style="fill:none;stroke:#000000;stroke-linecap:square;stroke-linejoin:miter;stroke-width:0.8;"/>
   </g>
   <g id="patch_5">
    <path d="M 138.24 491.4936 
L 995.328 491.4936 
" style="fill:none;stroke:#000000;stroke-linecap:square;stroke-linejoin:miter;stroke-width:0.8;"/>
   </g>
   <g id="patch_6">
    <path d="M 138.24 66.2688 
L 995.328 66.2688 
" style="fill:none;stroke:#000000;stroke-linecap:square;stroke-linejoin:miter;stroke-width:0.8;"/>
   </g>
   <g id="text_15">
    <!-- third derivative -->
    <defs>
     <path d="M 18.3125 70.21875 
L 18.3125 54.6875 
L 36.8125 54.6875 
L 36.8125 47.703125 
L 18.3125 47.703125 
L 18.3125 18.015625 
Q 18.3125 11.328125 20.140625 9.421875 
Q 21.96875 7.515625 27.59375 7.515625 
L 36.8125 7.515625 
L 36.8125 0 
L 27.59375 0 
Q 17.1875 0 13.234375 3.875 
Q 9.28125 7.765625 9.28125 18.015625 
L 9.28125 47.703125 
L 2.6875 47.703125 
L 2.6875 54.6875 
L 9.28125 54.6875 
L 9.28125 70.21875 
z
" id="DejaVuSans-116"/>
     <path d="M 54.890625 33.015625 
L 54.890625 0 
L 45.90625 0 
L 45.90625 32.71875 
Q 45.90625 40.484375 42.875 44.328125 
Q 39.84375 48.1875 33.796875 48.1875 
Q 26.515625 48.1875 22.3125 43.546875 
Q 18.109375 38.921875 18.109375 30.90625 
L 18.109375 0 
L 9.078125 0 
L 9.078125 75.984375 
L 18.109375 75.984375 
L 18.109375 46.1875 
Q 21.34375 51.125 25.703125 53.5625 
Q 30.078125 56 35.796875 56 
Q 45.21875 56 50.046875 50.171875 
Q 54.890625 44.34375 54.890625 33.015625 
z
" id="DejaVuSans-104"/>
     <path d="M 9.421875 54.6875 
L 18.40625 54.6875 
L 18.40625 0 
L 9.421875 0 
z
M 9.421875 75.984375 
L 18.40625 75.984375 
L 18.40625 64.59375 
L 9.421875 64.59375 
z
" id="DejaVuSans-105"/>
     <path d="M 41.109375 46.296875 
Q 39.59375 47.171875 37.8125 47.578125 
Q 36.03125 48 33.890625 48 
Q 26.265625 48 22.1875 43.046875 
Q 18.109375 38.09375 18.109375 28.8125 
L 18.109375 0 
L 9.078125 0 
L 9.078125 54.6875 
L 18.109375 54.6875 
L 18.109375 46.1875 
Q 20.953125 51.171875 25.484375 53.578125 
Q 30.03125 56 36.53125 56 
Q 37.453125 56 38.578125 55.875 
Q 39.703125 55.765625 41.0625 55.515625 
z
" id="DejaVuSans-114"/>
     <path d="M 45.40625 46.390625 
L 45.40625 75.984375 
L 54.390625 75.984375 
L 54.390625 0 
L 45.40625 0 
L 45.40625 8.203125 
Q 42.578125 3.328125 38.25 0.953125 
Q 33.9375 -1.421875 27.875 -1.421875 
Q 17.96875 -1.421875 11.734375 6.484375 
Q 5.515625 14.40625 5.515625 27.296875 
Q 5.515625 40.1875 11.734375 48.09375 
Q 17.96875 56 27.875 56 
Q 33.9375 56 38.25 53.625 
Q 42.578125 51.265625 45.40625 46.390625 
z
M 14.796875 27.296875 
Q 14.796875 17.390625 18.875 11.75 
Q 22.953125 6.109375 30.078125 6.109375 
Q 37.203125 6.109375 41.296875 11.75 
Q 45.40625 17.390625 45.40625 27.296875 
Q 45.40625 37.203125 41.296875 42.84375 
Q 37.203125 48.484375 30.078125 48.484375 
Q 22.953125 48.484375 18.875 42.84375 
Q 14.796875 37.203125 14.796875 27.296875 
z
" id="DejaVuSans-100"/>
     <path id="DejaVuSans-32"/>
     <path d="M 56.203125 29.59375 
L 56.203125 25.203125 
L 14.890625 25.203125 
Q 15.484375 15.921875 20.484375 11.0625 
Q 25.484375 6.203125 34.421875 6.203125 
Q 39.59375 6.203125 44.453125 7.46875 
Q 49.3125 8.734375 54.109375 11.28125 
L 54.109375 2.78125 
Q 49.265625 0.734375 44.1875 -0.34375 
Q 39.109375 -1.421875 33.890625 -1.421875 
Q 20.796875 -1.421875 13.15625 6.1875 
Q 5.515625 13.8125 5.515625 26.8125 
Q 5.515625 40.234375 12.765625 48.109375 
Q 20.015625 56 32.328125 56 
Q 43.359375 56 49.78125 48.890625 
Q 56.203125 41.796875 56.203125 29.59375 
z
M 47.21875 32.234375 
Q 47.125 39.59375 43.09375 43.984375 
Q 39.0625 48.390625 32.421875 48.390625 
Q 24.90625 48.390625 20.390625 44.140625 
Q 15.875 39.890625 15.1875 32.171875 
z
" id="DejaVuSans-101"/>
     <path d="M 2.984375 54.6875 
L 12.5 54.6875 
L 29.59375 8.796875 
L 46.6875 54.6875 
L 56.203125 54.6875 
L 35.6875 0 
L 23.484375 0 
z
" id="DejaVuSans-118"/>
     <path d="M 34.28125 27.484375 
Q 23.390625 27.484375 19.1875 25 
Q 14.984375 22.515625 14.984375 16.5 
Q 14.984375 11.71875 18.140625 8.90625 
Q 21.296875 6.109375 26.703125 6.109375 
Q 34.1875 6.109375 38.703125 11.40625 
Q 43.21875 16.703125 43.21875 25.484375 
L 43.21875 27.484375 
z
M 52.203125 31.203125 
L 52.203125 0 
L 43.21875 0 
L 43.21875 8.296875 
Q 40.140625 3.328125 35.546875 0.953125 
Q 30.953125 -1.421875 24.3125 -1.421875 
Q 15.921875 -1.421875 10.953125 3.296875 
Q 6 8.015625 6 15.921875 
Q 6 25.140625 12.171875 29.828125 
Q 18.359375 34.515625 30.609375 34.515625 
L 43.21875 34.515625 
L 43.21875 35.40625 
Q 43.21875 41.609375 39.140625 45 
Q 35.0625 48.390625 27.6875 48.390625 
Q 23 48.390625 18.546875 47.265625 
Q 14.109375 46.140625 10.015625 43.890625 
L 10.015625 52.203125 
Q 14.9375 54.109375 19.578125 55.046875 
Q 24.21875 56 28.609375 56 
Q 40.484375 56 46.34375 49.84375 
Q 52.203125 43.703125 52.203125 31.203125 
z
" id="DejaVuSans-97"/>
    </defs>
    <g transform="translate(456.07725 60.2688)scale(0.288 -0.288)">
     <use xlink:href="#DejaVuSans-116"/>
     <use x="39.208984" xlink:href="#DejaVuSans-104"/>
     <use x="102.587891" xlink:href="#DejaVuSans-105"/>
     <use x="130.371094" xlink:href="#DejaVuSans-114"/>
     <use x="171.46875" xlink:href="#DejaVuSans-100"/>
     <use x="234.945312" xlink:href="#DejaVuSans-32"/>
     <use x="266.732422" xlink:href="#DejaVuSans-100"/>
     <use x="330.208984" xlink:href="#DejaVuSans-101"/>
     <use x="391.732422" xlink:href="#DejaVuSans-114"/>
     <use x="432.845703" xlink:href="#DejaVuSans-105"/>
     <use x="460.628906" xlink:href="#DejaVuSans-118"/>
     <use x="519.808594" xlink:href="#DejaVuSans-97"/>
     <use x="581.087891" xlink:href="#DejaVuSans-116"/>
     <use x="620.296875" xlink:href="#DejaVuSans-105"/>
     <use x="648.080078" xlink:href="#DejaVuSans-118"/>
     <use x="707.259766" xlink:href="#DejaVuSans-101"/>
    </g>
   </g>
   <g id="legend_1">
    <g id="patch_7">
     <path d="M 780.79425 317.7087 
L 978.528 317.7087 
Q 983.328 317.7087 983.328 312.9087 
L 983.328 244.8537 
Q 983.328 240.0537 978.528 240.0537 
L 780.79425 240.0537 
Q 775.99425 240.0537 775.99425 244.8537 
L 775.99425 312.9087 
Q 775.99425 317.7087 780.79425 317.7087 
z
" style="fill:#ffffff;opacity:0.8;stroke:#cccccc;stroke-linejoin:miter;"/>
    </g>
    <g id="line2d_15">
     <path d="M 785.59425 259.48995 
L 833.59425 259.48995 
" style="fill:none;stroke:#1f77b4;stroke-linecap:square;stroke-width:1.5;"/>
    </g>
    <g id="line2d_16"/>
    <g id="text_16">
     <!-- prediction -->
     <defs>
      <path d="M 18.109375 8.203125 
L 18.109375 -20.796875 
L 9.078125 -20.796875 
L 9.078125 54.6875 
L 18.109375 54.6875 
L 18.109375 46.390625 
Q 20.953125 51.265625 25.265625 53.625 
Q 29.59375 56 35.59375 56 
Q 45.5625 56 51.78125 48.09375 
Q 58.015625 40.1875 58.015625 27.296875 
Q 58.015625 14.40625 51.78125 6.484375 
Q 45.5625 -1.421875 35.59375 -1.421875 
Q 29.59375 -1.421875 25.265625 0.953125 
Q 20.953125 3.328125 18.109375 8.203125 
z
M 48.6875 27.296875 
Q 48.6875 37.203125 44.609375 42.84375 
Q 40.53125 48.484375 33.40625 48.484375 
Q 26.265625 48.484375 22.1875 42.84375 
Q 18.109375 37.203125 18.109375 27.296875 
Q 18.109375 17.390625 22.1875 11.75 
Q 26.265625 6.109375 33.40625 6.109375 
Q 40.53125 6.109375 44.609375 11.75 
Q 48.6875 17.390625 48.6875 27.296875 
z
" id="DejaVuSans-112"/>
      <path d="M 48.78125 52.59375 
L 48.78125 44.1875 
Q 44.96875 46.296875 41.140625 47.34375 
Q 37.3125 48.390625 33.40625 48.390625 
Q 24.65625 48.390625 19.8125 42.84375 
Q 14.984375 37.3125 14.984375 27.296875 
Q 14.984375 17.28125 19.8125 11.734375 
Q 24.65625 6.203125 33.40625 6.203125 
Q 37.3125 6.203125 41.140625 7.25 
Q 44.96875 8.296875 48.78125 10.40625 
L 48.78125 2.09375 
Q 45.015625 0.34375 40.984375 -0.53125 
Q 36.96875 -1.421875 32.421875 -1.421875 
Q 20.0625 -1.421875 12.78125 6.34375 
Q 5.515625 14.109375 5.515625 27.296875 
Q 5.515625 40.671875 12.859375 48.328125 
Q 20.21875 56 33.015625 56 
Q 37.15625 56 41.109375 55.140625 
Q 45.0625 54.296875 48.78125 52.59375 
z
" id="DejaVuSans-99"/>
      <path d="M 30.609375 48.390625 
Q 23.390625 48.390625 19.1875 42.75 
Q 14.984375 37.109375 14.984375 27.296875 
Q 14.984375 17.484375 19.15625 11.84375 
Q 23.34375 6.203125 30.609375 6.203125 
Q 37.796875 6.203125 41.984375 11.859375 
Q 46.1875 17.53125 46.1875 27.296875 
Q 46.1875 37.015625 41.984375 42.703125 
Q 37.796875 48.390625 30.609375 48.390625 
z
M 30.609375 56 
Q 42.328125 56 49.015625 48.375 
Q 55.71875 40.765625 55.71875 27.296875 
Q 55.71875 13.875 49.015625 6.21875 
Q 42.328125 -1.421875 30.609375 -1.421875 
Q 18.84375 -1.421875 12.171875 6.21875 
Q 5.515625 13.875 5.515625 27.296875 
Q 5.515625 40.765625 12.171875 48.375 
Q 18.84375 56 30.609375 56 
z
" id="DejaVuSans-111"/>
      <path d="M 54.890625 33.015625 
L 54.890625 0 
L 45.90625 0 
L 45.90625 32.71875 
Q 45.90625 40.484375 42.875 44.328125 
Q 39.84375 48.1875 33.796875 48.1875 
Q 26.515625 48.1875 22.3125 43.546875 
Q 18.109375 38.921875 18.109375 30.90625 
L 18.109375 0 
L 9.078125 0 
L 9.078125 54.6875 
L 18.109375 54.6875 
L 18.109375 46.1875 
Q 21.34375 51.125 25.703125 53.5625 
Q 30.078125 56 35.796875 56 
Q 45.21875 56 50.046875 50.171875 
Q 54.890625 44.34375 54.890625 33.015625 
z
" id="DejaVuSans-110"/>
     </defs>
     <g transform="translate(852.79425 267.88995)scale(0.24 -0.24)">
      <use xlink:href="#DejaVuSans-112"/>
      <use x="63.476562" xlink:href="#DejaVuSans-114"/>
      <use x="104.558594" xlink:href="#DejaVuSans-101"/>
      <use x="166.082031" xlink:href="#DejaVuSans-100"/>
      <use x="229.558594" xlink:href="#DejaVuSans-105"/>
      <use x="257.341797" xlink:href="#DejaVuSans-99"/>
      <use x="312.322266" xlink:href="#DejaVuSans-116"/>
      <use x="351.53125" xlink:href="#DejaVuSans-105"/>
      <use x="379.314453" xlink:href="#DejaVuSans-111"/>
      <use x="440.496094" xlink:href="#DejaVuSans-110"/>
     </g>
    </g>
    <g id="line2d_17">
     <path d="M 785.59425 294.71745 
L 833.59425 294.71745 
" style="fill:none;stroke:#ff7f0e;stroke-linecap:square;stroke-width:1.5;"/>
    </g>
    <g id="line2d_18"/>
    <g id="text_17">
     <!-- actual -->
     <defs>
      <path d="M 8.5 21.578125 
L 8.5 54.6875 
L 17.484375 54.6875 
L 17.484375 21.921875 
Q 17.484375 14.15625 20.5 10.265625 
Q 23.53125 6.390625 29.59375 6.390625 
Q 36.859375 6.390625 41.078125 11.03125 
Q 45.3125 15.671875 45.3125 23.6875 
L 45.3125 54.6875 
L 54.296875 54.6875 
L 54.296875 0 
L 45.3125 0 
L 45.3125 8.40625 
Q 42.046875 3.421875 37.71875 1 
Q 33.40625 -1.421875 27.6875 -1.421875 
Q 18.265625 -1.421875 13.375 4.4375 
Q 8.5 10.296875 8.5 21.578125 
z
M 31.109375 56 
z
" id="DejaVuSans-117"/>
      <path d="M 9.421875 75.984375 
L 18.40625 75.984375 
L 18.40625 0 
L 9.421875 0 
z
" id="DejaVuSans-108"/>
     </defs>
     <g transform="translate(852.79425 303.11745)scale(0.24 -0.24)">
      <use xlink:href="#DejaVuSans-97"/>
      <use x="61.279297" xlink:href="#DejaVuSans-99"/>
      <use x="116.259766" xlink:href="#DejaVuSans-116"/>
      <use x="155.46875" xlink:href="#DejaVuSans-117"/>
      <use x="218.847656" xlink:href="#DejaVuSans-97"/>
      <use x="280.126953" xlink:href="#DejaVuSans-108"/>
     </g>
    </g>
   </g>
  </g>
 </g>
 <defs>
  <clipPath id="p8c1a3fa5b3">
   <rect height="425.2248" width="857.088" x="138.24" y="66.2688"/>
  </clipPath>
 </defs>
</svg>
